<?xml version="1.0" standalone="no"?><!DOCTYPE svg PUBLIC "-//W3C//DTD SVG 1.1//EN" "http://www.w3.org/Graphics/SVG/1.1/DTD/svg11.dtd"><svg width="100%" height="100%" viewBox="0 0 16 16" version="1.1" xmlns="http://www.w3.org/2000/svg" xmlns:xlink="http://www.w3.org/1999/xlink" xml:space="preserve">
  <g>
    <path d="M8,12.0505501 C7.58323088,12.0505501 7.184792,11.8654465 6.90696628,11.5427211 L1.50644232,5.26957259 C1.36749891,5.1082099 1.16837113,5.01565805 0.959956008,5.01565805 L0.24440354,5.01565805 C0.109431684,5.01565805 0,4.90196782 0,4.76174355 L0,4.2539145 C0,4.11369023 0.109431684,4 0.24440354,4 L0.959956008,4 C1.44625795,4 1.91105239,4.2159543 2.23513148,4.5925095 L7.62520716,10.8534702 C7.7156976,10.9585908 7.8415654,11.0282268 7.97720936,11.0343843 C8.12696764,11.04124 8.26536116,10.9806179 8.36434456,10.8655946 L13.7648685,4.5925095 C14.0890087,4.2159543 14.5538032,4 15.040044,4 L15.7555964,4 C15.8906294,4 16,4.11369023 16,4.2539145 L16,4.76174355 C16,4.90196782 15.8906294,5.01565805 15.7555964,5.01565805 L15.040044,5.01565805 C14.8316289,5.01565805 14.63244,5.1082099 14.4935577,5.26957259 L9.09303372,11.5427211 C8.815208,11.8654465 8.41683024,12.0505501 8,12.0505501 L8,12.0505501 Z M1.50644232,11.7304274 C1.36749891,11.8917901 1.16837113,11.984342 0.959956008,11.984342 L0.24440354,11.984342 C0.109370584,11.984342 0,12.0980322 0,12.2382565 L0,12.7460855 C0,12.8863098 0.109370584,13 0.24440354,13 L0.959956008,13 C1.44625795,13 1.91105239,12.7840457 2.23513148,12.4074905 L3.90024865,10.4733351 L3.24941712,9.71734265 L1.50644232,11.7304274 Z M14.4938067,11.7304274 C14.6327501,11.8917901 14.8318779,11.984342 15.040293,11.984342 L15.7558455,11.984342 C15.8908785,11.984342 16.000249,12.0980322 16.000249,12.2382565 L16.000249,12.7460855 C16.000249,12.8863098 15.8908785,13 15.7558455,13 L15.040293,13 C14.5539911,13 14.0891966,12.7840457 13.7651176,12.4074905 L12.1000004,10.4733351 L12.7508319,9.71734265 L14.4938067,11.7304274 Z"></path>
  </g>
</svg>